<svg width="90" height="91" viewBox="0 0 90 91" fill="none" xmlns="http://www.w3.org/2000/svg">
<rect x="0.187256" y="0.634277" width="89.7194" height="89.7193" rx="44.8597" fill="white"/>
<g filter="url(#filter0_d_477_15417)">
<path d="M35.7527 60.0736V62.9941H48.7666V60.0736H48.4395C47.5984 60.0736 46.8508 59.8711 46.1966 59.4661C45.5424 59.0456 44.966 58.1499 44.4676 56.7792L34.2573 28.8354H25.6125L15.8462 56.8727C15.4256 57.9942 14.8882 58.8119 14.234 59.3259C13.5798 59.8244 12.8088 60.0736 11.921 60.0736H11.4069V62.9941H29.0938V60.0736H27.1779C26.6795 60.0736 26.22 59.9801 25.7994 59.7932C25.3789 59.5907 25.1686 59.1935 25.1686 58.6016C25.1686 58.1499 25.2387 57.6904 25.3789 57.2231C25.4567 57.0051 25.5268 56.8181 25.5891 56.6624C25.6359 56.491 25.6748 56.3509 25.706 56.2418L27.1779 51.896H38.0891L39.1872 55.3306C39.2963 55.72 39.4365 56.2418 39.6078 56.896C39.7791 57.5502 39.8648 58.1032 39.8648 58.5549C39.8648 59.0222 39.7402 59.396 39.491 59.6764C39.2262 59.9412 38.7589 60.0736 38.0891 60.0736H35.7527ZM34.0237 39.3961L37.0377 48.6017H28.2293L30.963 39.4428C31.072 39.0378 31.1888 38.6173 31.3134 38.1811C31.438 37.7294 31.5626 37.2621 31.6873 36.7793C31.9521 35.907 32.1935 34.9179 32.4116 33.812C32.6608 34.8244 32.9334 35.8135 33.2293 36.7793C33.5097 37.7294 33.7745 38.6017 34.0237 39.3961Z" fill="#FFE600"/>
<path d="M35.7527 60.0736H33.7589V58.0798H35.7527V60.0736ZM35.7527 62.9941V64.9879H33.7589V62.9941H35.7527ZM48.7666 62.9941H50.7604V64.9879H48.7666V62.9941ZM48.7666 60.0736V58.0798H50.7604V60.0736H48.7666ZM46.1966 59.4661L45.1471 61.1613L45.1327 61.1524L45.1184 61.1432L46.1966 59.4661ZM44.4676 56.7792L46.3403 56.095L46.3413 56.0979L44.4676 56.7792ZM34.2573 28.8354V26.8416H35.6515L36.13 28.1511L34.2573 28.8354ZM25.6125 28.8354L23.7297 28.1795L24.1957 26.8416H25.6125V28.8354ZM15.8462 56.8727L17.729 57.5285L17.7213 57.5507L17.713 57.5727L15.8462 56.8727ZM14.234 59.3259L15.4658 60.8937L15.4542 60.9028L15.4423 60.9118L14.234 59.3259ZM11.4069 60.0736H9.41318V58.0798H11.4069V60.0736ZM11.4069 62.9941V64.9879H9.41318V62.9941H11.4069ZM29.0938 62.9941H31.0876V64.9879H29.0938V62.9941ZM29.0938 60.0736V58.0798H31.0876V60.0736H29.0938ZM25.7994 59.7932L24.9897 61.6151L24.9619 61.6028L24.9345 61.5896L25.7994 59.7932ZM25.3789 57.2231L23.4692 56.6502L23.484 56.601L23.5013 56.5526L25.3789 57.2231ZM25.5891 56.6624L27.5127 57.187L27.4827 57.297L27.4403 57.4028L25.5891 56.6624ZM25.706 56.2418L23.7889 55.6941L23.8021 55.6478L23.8176 55.6022L25.706 56.2418ZM27.1779 51.896L25.2895 51.2564L25.7482 49.9023H27.1779V51.896ZM38.0891 51.896V49.9023H39.5448L39.9882 51.2889L38.0891 51.896ZM39.1872 55.3306L41.0863 54.7234L41.0974 54.758L41.1072 54.793L39.1872 55.3306ZM39.491 59.6764L40.9811 61.001L40.9422 61.0448L40.9008 61.0862L39.491 59.6764ZM34.0237 39.3961L32.1289 40.0165L32.1251 40.0047L32.1214 39.9929L34.0237 39.3961ZM37.0377 48.6017L38.9325 47.9813L39.7884 50.5954H37.0377V48.6017ZM28.2293 48.6017V50.5954H25.5536L26.3188 48.0314L28.2293 48.6017ZM30.963 39.4428L32.8882 39.9611L32.8812 39.9872L32.8734 40.013L30.963 39.4428ZM31.3134 38.1811L33.2354 38.7113L33.233 38.7201L33.2305 38.7289L31.3134 38.1811ZM31.6873 36.7793L29.7567 36.2811L29.7673 36.2403L29.7795 36.2001L31.6873 36.7793ZM32.4116 33.812L30.4555 33.4263L34.3475 33.3354L32.4116 33.812ZM33.2293 36.7793L35.1356 36.1951L35.1386 36.205L35.1416 36.215L33.2293 36.7793ZM37.7464 60.0736V62.9941H33.7589V60.0736H37.7464ZM35.7527 61.0004H48.7666V64.9879H35.7527V61.0004ZM46.7729 62.9941V60.0736H50.7604V62.9941H46.7729ZM48.7666 62.0674H48.4395V58.0798H48.7666V62.0674ZM48.4395 62.0674C47.2634 62.0674 46.1457 61.7795 45.1471 61.1613L47.246 57.7709C47.5558 57.9627 47.9334 58.0798 48.4395 58.0798V62.0674ZM45.1184 61.1432C43.8927 60.3553 43.1286 58.931 42.5939 57.4606L46.3413 56.0979C46.8035 57.3688 47.192 57.7358 47.2747 57.789L45.1184 61.1432ZM42.5949 57.4635L32.3847 29.5196L36.13 28.1511L46.3403 56.095L42.5949 57.4635ZM34.2573 30.8291H25.6125V26.8416H34.2573V30.8291ZM27.4953 29.4912L17.729 57.5285L13.9634 56.2168L23.7297 28.1795L27.4953 29.4912ZM17.713 57.5727C17.2175 58.8941 16.5067 60.0758 15.4658 60.8937L13.0022 57.7582C13.2698 57.548 13.6338 57.0942 13.9794 56.1726L17.713 57.5727ZM15.4423 60.9118C14.4126 61.6964 13.2085 62.0674 11.921 62.0674V58.0798C12.4091 58.0798 12.747 57.9524 13.0257 57.74L15.4423 60.9118ZM11.921 62.0674H11.4069V58.0798H11.921V62.0674ZM13.4007 60.0736V62.9941H9.41318V60.0736H13.4007ZM11.4069 61.0004H29.0938V64.9879H11.4069V61.0004ZM27.1 62.9941V60.0736H31.0876V62.9941H27.1ZM29.0938 62.0674H27.1779V58.0798H29.0938V62.0674ZM27.1779 62.0674C26.424 62.0674 25.6857 61.9245 24.9897 61.6151L26.6092 57.9713C26.7542 58.0358 26.935 58.0798 27.1779 58.0798V62.0674ZM24.9345 61.5896C23.6267 60.9599 23.1748 59.7132 23.1748 58.6016H27.1623C27.1623 58.6718 27.1759 58.576 27.0884 58.4106C27.0434 58.3256 26.9797 58.2383 26.8971 58.1598C26.8152 58.0819 26.7325 58.0296 26.6644 57.9968L24.9345 61.5896ZM23.1748 58.6016C23.1748 57.941 23.2777 57.2886 23.4692 56.6502L27.2885 57.796C27.1997 58.0923 27.1623 58.3588 27.1623 58.6016H23.1748ZM23.5013 56.5526C23.5846 56.3191 23.6637 56.1076 23.738 55.9219L27.4403 57.4028C27.39 57.5287 27.3289 57.691 27.2565 57.8937L23.5013 56.5526ZM23.6656 56.1378C23.7134 55.9625 23.7547 55.8139 23.7889 55.6941L27.623 56.7896C27.5949 56.8879 27.5583 57.0196 27.5127 57.187L23.6656 56.1378ZM23.8176 55.6022L25.2895 51.2564L29.0663 52.5357L27.5943 56.8814L23.8176 55.6022ZM27.1779 49.9023H38.0891V53.8898H27.1779V49.9023ZM39.9882 51.2889L41.0863 54.7234L37.2882 55.9378L36.1901 52.5032L39.9882 51.2889ZM41.1072 54.793C41.2205 55.198 41.3639 55.732 41.5365 56.3909L37.6791 57.4012C37.509 56.7517 37.372 56.2421 37.2673 55.8682L41.1072 54.793ZM41.5365 56.3909C41.7319 57.1369 41.8586 57.8709 41.8586 58.5549H37.871C37.871 58.3355 37.8264 57.9635 37.6791 57.4012L41.5365 56.3909ZM41.8586 58.5549C41.8586 59.3858 41.629 60.2721 40.9811 61.001L38.0008 58.3518C37.937 58.4235 37.8986 58.4992 37.8799 58.5553C37.8632 58.6054 37.871 58.613 37.871 58.5549H41.8586ZM40.9008 61.0862C40.0587 61.9282 38.9057 62.0674 38.0891 62.0674V58.0798C38.1921 58.0798 38.2689 58.0747 38.3229 58.0684C38.3774 58.062 38.4002 58.0555 38.3984 58.056C38.3965 58.0566 38.3606 58.0668 38.3036 58.0977C38.2451 58.1295 38.1649 58.1828 38.0812 58.2666L40.9008 61.0862ZM38.0891 62.0674H35.7527V58.0798H38.0891V62.0674ZM35.9185 38.7757L38.9325 47.9813L35.1429 49.222L32.1289 40.0165L35.9185 38.7757ZM37.0377 50.5954H28.2293V46.6079H37.0377V50.5954ZM26.3188 48.0314L29.0525 38.8726L32.8734 40.013L30.1398 49.1719L26.3188 48.0314ZM29.0378 38.9245C29.1496 38.5089 29.2692 38.0785 29.3964 37.6334L33.2305 38.7289C33.1084 39.156 32.9944 39.5667 32.8882 39.9611L29.0378 38.9245ZM29.3915 37.6509C29.5129 37.2105 29.6347 36.7539 29.7567 36.2811L33.6178 37.2775C33.4906 37.7703 33.3631 38.2483 33.2354 38.7113L29.3915 37.6509ZM29.7795 36.2001C30.0211 35.4042 30.2474 34.4815 30.4555 33.4263L34.3677 34.1977C34.1396 35.3543 33.883 36.4097 33.5951 37.3584L29.7795 36.2001ZM34.3475 33.3354C34.5881 34.3129 34.8509 35.2661 35.1356 36.1951L31.323 37.3634C31.0158 36.361 30.7334 35.336 30.4756 34.2885L34.3475 33.3354ZM35.1416 36.215C35.4193 37.1562 35.6808 38.0175 35.926 38.7993L32.1214 39.9929C31.8682 39.1859 31.6001 38.3026 31.3171 37.3435L35.1416 36.215Z" fill="black"/>
</g>
<rect x="49.0938" y="30.5405" width="29.9065" height="29.9064" rx="14.9532" fill="black"/>
<path d="M65.5375 47.2805V56.0421H61.7057V47.2805H52.8973V43.4954H61.7057V34.7338H65.5375V43.4954H74.3926V47.2805H65.5375Z" fill="white"/>
<defs>
<filter id="filter0_d_477_15417" x="11.407" y="28.8354" width="41.3471" height="36.1525" filterUnits="userSpaceOnUse" color-interpolation-filters="sRGB">
<feFlood flood-opacity="0" result="BackgroundImageFix"/>
<feColorMatrix in="SourceAlpha" type="matrix" values="0 0 0 0 0 0 0 0 0 0 0 0 0 0 0 0 0 0 127 0" result="hardAlpha"/>
<feOffset dx="3.98753" dy="1.99376"/>
<feComposite in2="hardAlpha" operator="out"/>
<feColorMatrix type="matrix" values="0 0 0 0 0 0 0 0 0 0 0 0 0 0 0 0 0 0 1 0"/>
<feBlend mode="normal" in2="BackgroundImageFix" result="effect1_dropShadow_477_15417"/>
<feBlend mode="normal" in="SourceGraphic" in2="effect1_dropShadow_477_15417" result="shape"/>
</filter>
</defs>
</svg>
