<svg width="30" height="30" viewBox="0 0 30 30" fill="none" xmlns="http://www.w3.org/2000/svg">
<path id="Vector" d="M29.9253 7.6865C29.9349 6.7694 29.8346 5.85446 29.6266 4.96121C29.2321 3.331 28.305 2.08658 26.9138 1.17441C26.2041 0.71874 25.4095 0.411418 24.578 0.270957C23.9348 0.160197 23.2842 0.0978011 22.6317 0.0842928C22.5819 0.0805595 22.5284 0.0718485 22.4774 0.0681152H7.51557C7.32642 0.0805595 7.13851 0.0892705 6.94935 0.10047C6.01976 0.153981 5.09515 0.253535 4.22032 0.598241C2.55776 1.25779 1.35813 2.40515 0.655022 4.05775C0.416091 4.61525 0.291648 5.20885 0.203294 5.80991C0.134507 6.29668 0.0929616 6.78692 0.0788506 7.27833C0.0788506 7.31815 0.0701395 7.35548 0.0664062 7.39406V22.6047C0.0788506 22.7789 0.0875616 22.9569 0.100006 23.1323C0.162227 24.1465 0.291648 25.1533 0.718488 26.0854C1.52737 27.8525 2.88131 29.0135 4.74298 29.571C5.26564 29.729 5.80821 29.8037 6.35203 29.8547C7.04269 29.9207 7.73335 29.9294 8.42649 29.9294H22.1526C22.8058 29.929 23.4583 29.8874 24.1063 29.805C25.1292 29.6731 26.0924 29.3694 26.9623 28.797C27.994 28.1301 28.8074 27.1751 29.3018 26.0505C29.5333 25.5279 29.6664 24.9679 29.7623 24.4029C29.9029 23.5629 29.934 22.713 29.9328 21.8643C29.9303 17.1354 29.9328 12.4128 29.929 7.6865H29.9253ZM21.9323 12.6518V19.7599C21.9323 20.2789 21.8601 20.7891 21.6287 21.2607C21.2678 21.9949 20.6829 22.4579 19.9014 22.6794C19.4658 22.8038 19.0228 22.8747 18.5699 22.8947C17.3876 22.9507 16.3635 22.148 16.1519 20.9832C16.0631 20.4803 16.1412 19.9621 16.3745 19.5078C16.6077 19.0535 16.9832 18.6879 17.4436 18.467C17.8456 18.2679 18.2774 18.1559 18.7105 18.0638C19.1809 17.9617 19.6537 17.8734 20.1217 17.7651C20.4626 17.6867 20.6904 17.4789 20.7563 17.123C20.7732 17.0441 20.7815 16.9635 20.7812 16.8828C20.7812 14.6242 20.7812 12.3656 20.7787 10.1094C20.7779 10.0316 20.767 9.95421 20.7464 9.87918C20.6966 9.69252 20.5597 9.57679 20.3681 9.58799C20.1689 9.60043 19.9723 9.63154 19.7769 9.67012C18.8312 9.85678 17.8854 10.0472 16.9396 10.2376L14.0463 10.8225L12.3365 11.1684C12.3166 11.1721 12.2967 11.1809 12.2768 11.1846C11.9321 11.2804 11.8076 11.4372 11.7914 11.7944C11.7889 11.8466 11.7914 11.9014 11.7914 11.9561C11.7889 15.1941 11.7914 18.4321 11.7877 21.6689C11.7877 22.1916 11.7292 22.7092 11.5202 23.1958C11.1742 23.9922 10.5619 24.49 9.73563 24.7302C9.30008 24.8546 8.85209 24.9293 8.39787 24.9442C7.20322 24.989 6.2139 24.1976 6.00856 23.0228C5.83434 22.0124 6.29478 20.926 7.44464 20.4406C7.8889 20.254 8.35307 20.1519 8.82347 20.0549C9.18062 19.9802 9.53901 19.9105 9.89368 19.8346C10.3703 19.7313 10.6192 19.4327 10.6403 18.9461V18.7594C10.6403 15.0759 10.6403 11.3899 10.6428 7.70641C10.6428 7.55335 10.659 7.39531 10.6951 7.24598C10.7822 6.89131 11.0348 6.68847 11.3746 6.60136C11.6919 6.51923 12.0154 6.46199 12.3377 6.39603C13.2499 6.20937 14.1621 6.02768 15.0755 5.8435L17.9003 5.27107C18.7341 5.10431 19.5679 4.93507 20.4017 4.76956C20.6754 4.71605 20.9517 4.66005 21.2267 4.63765C21.6125 4.60654 21.8776 4.84921 21.9161 5.23747C21.9261 5.32831 21.9311 5.42164 21.9311 5.51498C21.9335 7.89183 21.9335 10.2712 21.9311 12.648L21.9323 12.6518Z" fill="#181818"/>
</svg>
