<svg width="30" height="16" viewBox="0 0 30 16" fill="none" xmlns="http://www.w3.org/2000/svg">
<path id="Vector" d="M25.6643 15.1319H23.4056L19.2492 3.67944H21.2814L23.7951 11.1298C23.8885 11.4173 24.1348 12.2498 24.5244 13.6336L24.894 12.3929L25.3046 11.141L27.9105 3.66949H29.9327L25.6643 15.1319ZM19.014 15.0498C18.3858 15.2229 17.7368 15.3096 17.0851 15.3074C15.5545 15.3074 14.7954 14.445 14.7954 12.7103V5.06574H13.4726V3.67944H14.8676V1.87378L16.7044 1.12463V3.69064H18.8286V5.07569H16.7168V12.2996C16.7168 12.8546 16.8089 13.2329 16.9831 13.4594C17.1573 13.6859 17.4759 13.7879 17.9164 13.7879C18.174 13.7879 18.5324 13.7369 19.0153 13.6448L19.014 15.0498ZM9.94212 8.4008C9.96327 10.596 11.871 11.3352 11.8921 11.3451C11.871 11.3974 11.5835 12.3929 10.8866 13.4084C10.2806 14.2919 9.65465 15.173 8.65911 15.1941C7.68472 15.214 7.37734 14.6192 6.25736 14.6192C5.14981 14.6192 4.80137 15.173 3.87676 15.214C2.93348 15.2452 2.20424 14.2496 1.5895 13.3673C0.347554 11.5616 -0.606925 8.26765 0.676083 6.05008C1.31074 4.94254 2.45064 4.24441 3.68263 4.23321C4.61595 4.2133 5.50945 4.87036 6.08438 4.87036C6.65806 4.87036 7.73574 4.0901 8.86444 4.20335C9.33732 4.22326 10.6714 4.39872 11.5225 5.63942C11.4504 5.68048 9.93216 6.56403 9.94212 8.4008ZM8.11529 3.00247C8.61804 2.38648 8.96773 1.53405 8.8744 0.682861C8.1464 0.713972 7.2641 1.1657 6.73024 1.78169C6.25736 2.32551 5.84669 3.19785 5.95994 4.02913C6.77131 4.09135 7.61254 3.60851 8.11529 3.00247Z" fill="#181818"/>
</svg>
