<svg width="31" height="24" viewBox="0 0 31 24" fill="none" xmlns="http://www.w3.org/2000/svg">
<path id="Union" fill-rule="evenodd" clip-rule="evenodd" d="M19.2166 3.06711L19.2169 3.06698C21.2314 2.17576 24.1444 1.60751 28.2532 1.5896H28.75V20.5962C23.1503 20.6477 20.0939 21.0094 17.75 22.203V4.93522C17.75 4.13216 17.8913 3.90571 17.9685 3.80839C18.0954 3.64867 18.3706 3.44117 19.2166 3.06711ZM11.2831 3.06698L11.2834 3.06711C12.1294 3.44117 12.4046 3.64867 12.5314 3.80839C12.6087 3.90571 12.75 4.13216 12.75 4.93522V22.203C10.4061 21.0094 7.34973 20.6477 1.75 20.5962V1.5896H2.24676C6.35556 1.60751 9.26862 2.17576 11.2831 3.06698ZM11.89 1.69522C9.61688 0.6896 6.47563 0.107725 2.25 0.0895996H1.25C0.697715 0.0895996 0.25 0.537315 0.25 1.0896V21.0896C0.25 21.6419 0.700868 22.0892 1.25314 22.0925C7.57886 22.1301 10.3696 22.5445 12.4513 23.7471C13.2015 24.1805 14.25 23.7071 14.25 22.8407V4.93522C14.25 3.01272 13.5863 2.44522 11.89 1.69522ZM28.25 0.0895996C24.0244 0.107725 20.8831 0.6896 18.61 1.69522C16.9137 2.44522 16.25 3.01272 16.25 4.93522V22.8407C16.25 23.7071 17.2985 24.1805 18.0487 23.7471C20.1304 22.5445 22.9211 22.1301 29.2469 22.0925C29.7991 22.0892 30.25 21.6419 30.25 21.0896V1.0896C30.25 0.537315 29.8023 0.0895996 29.25 0.0895996H28.25ZM25.3455 4.5896H25.3469H26.2501C26.5262 4.5896 26.7501 4.81346 26.7501 5.0896C26.7501 5.36574 26.5262 5.5896 26.2501 5.5896H25.3475C23.4465 5.59479 21.7846 5.73277 21.1597 5.86455C20.5557 5.99194 19.9162 6.25983 19.5174 6.51214C19.284 6.65978 18.9752 6.59028 18.8276 6.35692C18.6799 6.12356 18.7494 5.8147 18.9828 5.66706C19.4872 5.34794 20.2387 5.03678 20.9534 4.88607C21.6832 4.73216 23.4302 4.5948 25.3455 4.5896ZM26.2166 6.5896L26.2178 6.5896L27.2501 6.5896C27.5262 6.5896 27.7501 6.81346 27.7501 7.0896C27.7501 7.36574 27.5262 7.5896 27.2501 7.5896H26.2184C24.0437 7.59479 22.1332 7.73271 21.4053 7.86701C20.7005 7.99707 19.9575 8.26952 19.4923 8.52705C19.2507 8.66079 18.9464 8.57335 18.8126 8.33176C18.6789 8.09016 18.7663 7.78589 19.0079 7.65215C19.575 7.33825 20.4216 7.03165 21.2239 6.88361C22.0444 6.73221 24.0297 6.59479 26.2166 6.5896ZM25.3469 8.5896L25.3455 8.5896C23.4302 8.5948 21.6832 8.73216 20.9534 8.88607C20.2387 9.03678 19.4872 9.34794 18.9828 9.66706C18.7494 9.8147 18.6799 10.1236 18.8276 10.3569C18.9752 10.5903 19.284 10.6598 19.5174 10.5121C19.9162 10.2598 20.5557 9.99194 21.1597 9.86455C21.7846 9.73277 23.4465 9.59479 25.3475 9.5896H27.2501C27.5262 9.5896 27.7501 9.36574 27.7501 9.0896C27.7501 8.81346 27.5262 8.5896 27.2501 8.5896L25.3469 8.5896ZM25.3455 10.5896L25.3469 10.5896L26.2501 10.5896C26.5262 10.5896 26.7501 10.8135 26.7501 11.0896C26.7501 11.3657 26.5262 11.5896 26.2501 11.5896H25.3475C23.4465 11.5948 21.7846 11.7328 21.1597 11.8646C20.5557 11.9919 19.9162 12.2598 19.5174 12.5121C19.284 12.6598 18.9752 12.5903 18.8276 12.3569C18.6799 12.1236 18.7494 11.8147 18.9828 11.6671C19.4872 11.3479 20.2387 11.0368 20.9534 10.8861C21.6832 10.7322 23.4302 10.5948 25.3455 10.5896ZM26.2178 14.5896L26.2166 14.5896C24.0297 14.5948 22.0444 14.7322 21.2239 14.8836C20.4216 15.0317 19.575 15.3382 19.0079 15.6522C18.7663 15.7859 18.6789 16.0902 18.8126 16.3318C18.9464 16.5734 19.2507 16.6608 19.4923 16.527C19.9575 16.2695 20.7005 15.9971 21.4053 15.867C22.1332 15.7327 24.0437 15.5948 26.2184 15.5896H27.2501C27.5262 15.5896 27.7501 15.3657 27.7501 15.0896C27.7501 14.8135 27.5262 14.5896 27.2501 14.5896L26.2178 14.5896ZM25.3455 16.5896L25.3469 16.5896L26.2501 16.5896C26.5262 16.5896 26.7501 16.8135 26.7501 17.0896C26.7501 17.3657 26.5262 17.5896 26.2501 17.5896H25.3475C23.4465 17.5948 21.7846 17.7328 21.1597 17.8646C20.5557 17.9919 19.9162 18.2598 19.5174 18.5121C19.284 18.6598 18.9752 18.5903 18.8276 18.3569C18.6799 18.1236 18.7494 17.8147 18.9828 17.6671C19.4872 17.3479 20.2387 17.0368 20.9534 16.8861C21.6832 16.7322 23.4302 16.5948 25.3455 16.5896Z" fill="#320029"/>
</svg>
