<svg width="40" height="18" viewBox="0 0 40 18" fill="none" xmlns="http://www.w3.org/2000/svg">
<path id="Vector" d="M11.8052 17.0878H7.46176V10.8834H4.64216V17.0878H0.183031L0.166504 1.09573H4.64216V7.04565H7.46176V1.09573H11.8052V17.0878ZM31.7093 17.1638C36.1883 17.1605 39.8326 13.4402 39.8326 8.95955C39.8392 7.89055 39.6336 6.83088 39.2278 5.84189C38.822 4.85289 38.224 3.95423 37.4685 3.19794C36.713 2.44165 35.8149 1.84276 34.8263 1.43596C33.8378 1.02915 32.7783 0.822502 31.7093 0.827987C27.2353 0.824682 24.9495 4.11862 24.3843 5.44744C24.3893 3.45256 22.4225 1.09739 20.1202 1.09408H12.7109V17.0828L19.6211 17.0845C22.4076 17.0845 24.3909 14.6715 24.3942 12.6006C25.0305 13.9029 27.237 17.1655 31.711 17.1622L31.7093 17.1638ZM19.041 10.6586C19.6806 10.6586 20.1847 11.2899 20.1847 12.0089C20.1847 12.7278 19.6806 13.3592 19.041 13.3592H16.8428V10.6586H19.041ZM19.0492 4.65412C19.6888 4.65412 20.1929 5.28547 20.1929 6.00442C20.1929 6.72502 19.6888 7.35637 19.0492 7.35637H16.8511V4.65412H19.0492ZM21.9746 8.96285C22.4787 8.89839 23.3183 8.32323 23.6141 7.95467C23.51 8.41083 23.5017 9.72973 23.624 10.1859C23.2869 9.66693 22.4869 9.02731 21.9746 8.96285ZM27.6435 8.96285C27.6435 8.42849 27.7488 7.89936 27.9533 7.40568C28.1578 6.912 28.4575 6.46342 28.8353 6.08557C29.2132 5.70772 29.6618 5.408 30.1554 5.20351C30.6491 4.99902 31.1783 4.89377 31.7126 4.89377C32.247 4.89377 32.7761 4.99902 33.2698 5.20351C33.7635 5.408 34.212 5.70772 34.5899 6.08557C34.9677 6.46342 35.2675 6.912 35.472 7.40568C35.6764 7.89936 35.7817 8.42849 35.7817 8.96285C35.7817 10.0423 35.3529 11.0775 34.5896 11.8407C33.8264 12.604 32.7912 13.0328 31.7118 13.0328C30.6324 13.0328 29.5972 12.604 28.8339 11.8407C28.0707 11.0775 27.6435 10.0423 27.6435 8.96285ZM31.7126 12.1626C32.5612 12.1626 33.3751 11.8255 33.9752 11.2254C34.5752 10.6253 34.9123 9.81147 34.9123 8.96285C34.9123 8.11423 34.5752 7.30036 33.9752 6.7003C33.3751 6.10023 32.5612 5.76312 31.7126 5.76312C30.864 5.76312 30.0501 6.10023 29.4501 6.7003C28.85 7.30036 28.5129 8.11423 28.5129 8.96285C28.5129 9.81147 28.85 10.6253 29.4501 11.2254C30.0501 11.8255 30.864 12.1626 31.7126 12.1626Z" fill="white"/>
</svg>
