<svg width="31" height="30" viewBox="0 0 31 30" fill="none" xmlns="http://www.w3.org/2000/svg">
<path id="Vector" d="M1.25 0C0.973857 0 0.75 0.223858 0.75 0.5V29.5C0.75 29.7761 0.973858 30 1.25 30H30.25C30.5261 30 30.75 29.7761 30.75 29.5V0.5C30.75 0.223857 30.5261 0 30.25 0H1.25ZM4.49414 28.752H2.49805C2.2219 28.752 1.99805 28.5281 1.99805 28.252V26.75C1.99805 26.4739 2.2219 26.25 2.49805 26.25H4C4.27614 26.25 4.5 26.4739 4.5 26.75V28.7461C4.5 28.7493 4.49738 28.752 4.49414 28.752ZM4.49414 23.7539H2.49805C2.2219 23.7539 1.99805 23.53 1.99805 23.2539V21.752C1.99805 21.4758 2.2219 21.252 2.49805 21.252H4C4.27614 21.252 4.5 21.4758 4.5 21.752V23.748C4.5 23.7513 4.49738 23.7539 4.49414 23.7539ZM4.49414 18.75H2.49805C2.2219 18.75 1.99805 18.5261 1.99805 18.25V16.748C1.99805 16.4719 2.2219 16.248 2.49805 16.248H4C4.27614 16.248 4.5 16.4719 4.5 16.748V18.7441C4.5 18.7474 4.49738 18.75 4.49414 18.75ZM4.49414 13.752H2.49805C2.2219 13.752 1.99805 13.5281 1.99805 13.252V11.75C1.99805 11.4739 2.2219 11.25 2.49805 11.25H4C4.27614 11.25 4.5 11.4739 4.5 11.75V13.7461C4.5 13.7493 4.49738 13.752 4.49414 13.752ZM4.49414 8.74805H2.49805C2.2219 8.74805 1.99805 8.52419 1.99805 8.24805V6.74609C1.99805 6.46995 2.2219 6.24609 2.49805 6.24609H4C4.27614 6.24609 4.5 6.46995 4.5 6.74609V8.74219C4.5 8.74542 4.49738 8.74805 4.49414 8.74805ZM4.49414 3.74414H2.49805C2.2219 3.74414 1.99805 3.52028 1.99805 3.24414V1.74805C1.99805 1.4719 2.2219 1.24805 2.49805 1.24805H4C4.27614 1.24805 4.5 1.4719 4.5 1.74805V3.73828C4.5 3.74152 4.49738 3.74414 4.49414 3.74414ZM25.752 27.0039C25.752 27.28 25.5281 27.5039 25.252 27.5039H6.24805C5.9719 27.5039 5.74805 27.28 5.74805 27.0039V16.748C5.74805 16.4719 5.9719 16.248 6.24805 16.248H25.252C25.5281 16.248 25.752 16.4719 25.752 16.748V27.0039ZM25.752 13.252C25.752 13.5281 25.5281 13.752 25.252 13.752H6.24805C5.9719 13.752 5.74805 13.5281 5.74805 13.252V2.99609C5.74805 2.71995 5.9719 2.49609 6.24805 2.49609H25.252C25.5281 2.49609 25.752 2.71995 25.752 2.99609V13.252ZM29.502 28.252C29.502 28.5281 29.2781 28.752 29.002 28.752H27.5C27.2239 28.752 27 28.5281 27 28.252V26.75C27 26.4739 27.2239 26.25 27.5 26.25H29.002C29.2781 26.25 29.502 26.4739 29.502 26.75V28.252ZM29.502 23.2539C29.502 23.53 29.2781 23.7539 29.002 23.7539H27.5C27.2239 23.7539 27 23.53 27 23.2539V21.752C27 21.4758 27.2239 21.252 27.5 21.252H29.002C29.2781 21.252 29.502 21.4758 29.502 21.752V23.2539ZM29.502 18.25C29.502 18.5261 29.2781 18.75 29.002 18.75H27.5C27.2239 18.75 27 18.5261 27 18.25V16.748C27 16.4719 27.2239 16.248 27.5 16.248H29.002C29.2781 16.248 29.502 16.4719 29.502 16.748V18.25ZM29.502 13.252C29.502 13.5281 29.2781 13.752 29.002 13.752H27.5C27.2239 13.752 27 13.5281 27 13.252V11.75C27 11.4739 27.2239 11.25 27.5 11.25H29.002C29.2781 11.25 29.502 11.4739 29.502 11.75V13.252ZM29.502 8.24805C29.502 8.52419 29.2781 8.74805 29.002 8.74805H27.5C27.2239 8.74805 27 8.52419 27 8.24805V6.74609C27 6.46995 27.2239 6.24609 27.5 6.24609H29.002C29.2781 6.24609 29.502 6.46995 29.502 6.74609V8.24805ZM29.502 3.24414C29.502 3.52028 29.2781 3.74414 29.002 3.74414H27.5C27.2239 3.74414 27 3.52028 27 3.24414V1.74805C27 1.4719 27.2239 1.24805 27.5 1.24805H29.002C29.2781 1.24805 29.502 1.4719 29.502 1.74805V3.24414Z" fill="#320029"/>
</svg>
