<svg width="18" height="30" viewBox="0 0 18 30" fill="none" xmlns="http://www.w3.org/2000/svg">
<path id="Vector" d="M11.2532 23.9999V24C11.2532 26.2011 8.99006 29.5 4.56479 29.5C3.45899 29.5 2.50005 29.1965 1.82829 28.6527C1.1688 28.1188 0.75 27.3261 0.75 26.25C0.75 23.434 3.20257 21.65 6.00306 21.65C6.41733 21.65 6.78224 21.6799 7.09769 21.7252C7.63128 21.802 8.1861 21.6329 8.60529 21.3344C9.02417 21.0361 9.37959 20.5529 9.37959 19.9522V1C9.37959 0.723858 9.60345 0.5 9.87959 0.5H10.7561C11.0132 0.5 11.3127 0.731254 11.446 1.13744C11.7724 2.13217 12.4845 3.06448 13.2333 3.96031C13.4152 4.17784 13.5997 4.39384 13.7844 4.60997C14.3818 5.30929 14.9803 6.00988 15.4919 6.76749C16.1546 7.74874 16.6347 8.77673 16.7319 9.91889C16.8151 10.8977 16.6206 12.0014 15.9562 13.2752C16.0367 12.4931 16.0185 11.5016 15.818 10.5169C15.5104 9.00618 14.7444 7.37962 13.0937 6.59658C12.6283 6.37582 12.1474 6.47085 11.8019 6.73936C11.4663 7.00015 11.256 7.42139 11.2559 7.88095L11.2532 23.9999Z" fill="#320029" stroke="#320029"/>
</svg>
