<svg width="56" height="56" viewBox="0 0 56 56" fill="none" xmlns="http://www.w3.org/2000/svg">
<path id="Vector" d="M27.9997 0C12.536 0 0 12.5362 0 27.9996C0 43.4642 12.5362 55.9992 27.9997 55.9992C43.4645 55.9992 55.9994 43.4642 55.9994 27.9996C55.9994 12.5373 43.4645 0.00153123 27.9993 0.00153123L27.9995 0.000218747L27.9997 0ZM40.84 40.3838C40.3384 41.2063 39.2617 41.467 38.4392 40.9621C31.8652 36.9466 23.5895 36.037 13.8432 38.2639C13.3919 38.3666 12.9183 38.2859 12.5264 38.0395C12.1346 37.7931 11.8567 37.4011 11.7537 36.9499C11.7025 36.7265 11.6957 36.4951 11.734 36.2691C11.7722 36.0431 11.8546 35.8269 11.9765 35.6328C12.0984 35.4387 12.2574 35.2705 12.4444 35.138C12.6314 35.0054 12.8427 34.911 13.0662 34.8602C23.7324 32.4233 32.8811 33.4725 40.2616 37.983C41.0841 38.4879 41.3448 39.5613 40.84 40.3838ZM44.2671 32.7598C43.6349 33.7868 42.2909 34.1112 41.2646 33.4792C33.7383 28.8532 22.2657 27.5134 13.3637 30.2155C12.2092 30.5642 10.9899 29.9137 10.6394 28.7611C10.2916 27.6065 10.9426 26.3894 12.0952 26.0386C22.2637 22.9529 34.9051 24.4476 43.5483 29.7588C44.5746 30.391 44.899 31.7347 44.2671 32.7598ZM44.5613 24.8208C35.5371 19.4606 20.6485 18.9676 12.0327 21.5829C10.6491 22.0025 9.18587 21.2213 8.76675 19.8377C8.34741 18.4535 9.12768 16.9914 10.5124 16.5707C20.4026 13.5682 36.8445 14.1486 47.234 20.3164C48.4813 21.0548 48.889 22.6622 48.1501 23.9049C47.4146 25.1496 45.8029 25.5597 44.5626 24.8208H44.5613Z" fill="#1ED760"/>
</svg>
