<svg width="31" height="28" viewBox="0 0 31 28" fill="none" xmlns="http://www.w3.org/2000/svg">
<path id="Vector" d="M28.375 17.8571L30.25 27.5H0.25L2.125 17.8571H5.52344C5.02539 16.9732 4.64941 16.0441 4.39551 15.0698C4.1416 14.0954 4.00977 13.096 4 12.0714C4 11.0067 4.13184 9.98214 4.39551 8.99777C4.65918 8.01339 5.04004 7.09431 5.53809 6.24051C6.03613 5.38672 6.62207 4.60324 7.2959 3.89007C7.96973 3.1769 8.72656 2.57422 9.56641 2.08203C10.4062 1.58984 11.3047 1.20312 12.2617 0.921875C13.2188 0.640625 14.2148 0.5 15.25 0.5C16.2852 0.5 17.2812 0.635603 18.2383 0.906808C19.1953 1.17801 20.0889 1.56975 20.9189 2.08203C21.749 2.59431 22.5107 3.19699 23.2041 3.89007C23.8975 4.58315 24.4834 5.36161 24.9619 6.22545C25.4404 7.08929 25.8164 8.01339 26.0898 8.99777C26.3633 9.98214 26.5 11.0067 26.5 12.0714C26.5 13.096 26.373 14.0954 26.1191 15.0698C25.8652 16.0441 25.4844 16.9732 24.9766 17.8571H28.375ZM24.625 12.0714C24.625 11.75 24.6104 11.4286 24.5811 11.1071C24.5518 10.7857 24.5029 10.4643 24.4346 10.1429H20.7871C20.8457 10.7958 20.875 11.4386 20.875 12.0714C20.875 12.7143 20.8457 13.3571 20.7871 14H24.4346C24.4932 13.6786 24.5371 13.3571 24.5664 13.0357C24.5957 12.7143 24.6152 12.3929 24.625 12.0714ZM11.5879 14H18.9121C18.9707 13.3571 19 12.7143 19 12.0714C19 11.4386 18.9707 10.7958 18.9121 10.1429H11.5879C11.5293 10.7958 11.5 11.4386 11.5 12.0714C11.5 12.7143 11.5293 13.3571 11.5879 14ZM18.6484 15.9286H11.8516C11.8906 16.1596 11.959 16.4609 12.0566 16.8326C12.1543 17.2042 12.2764 17.611 12.4229 18.053C12.5693 18.495 12.7402 18.9269 12.9355 19.3488C13.1309 19.7706 13.3457 20.1624 13.5801 20.524C13.8145 20.8856 14.0732 21.1719 14.3564 21.3828C14.6396 21.5938 14.9375 21.7042 15.25 21.7143C15.5625 21.7143 15.8555 21.6038 16.1289 21.3828C16.4023 21.1618 16.6611 20.8756 16.9053 20.524C17.1494 20.1724 17.3643 19.7807 17.5498 19.3488C17.7354 18.9169 17.9062 18.4849 18.0625 18.053C18.2188 17.6211 18.3408 17.2193 18.4287 16.8477C18.5166 16.476 18.5898 16.1696 18.6484 15.9286ZM11.6611 20.976C11.2119 20.2126 10.8506 19.399 10.5771 18.5352C10.3037 17.6713 10.0938 16.8025 9.94727 15.9286H6.66602C6.90039 16.4609 7.19336 16.9782 7.54492 17.4805C7.89648 17.9827 8.28711 18.4598 8.7168 18.9118C9.14648 19.3638 9.61523 19.7606 10.123 20.1021C10.6309 20.4436 11.1436 20.7349 11.6611 20.976ZM20.5527 15.9286C20.3965 16.7924 20.1865 17.6562 19.9229 18.5201C19.6592 19.3839 19.3027 20.2026 18.8535 20.976C19.3809 20.7349 19.8887 20.4386 20.377 20.0871C20.8652 19.7355 21.3291 19.3438 21.7686 18.9118C22.208 18.4799 22.6035 18.0078 22.9551 17.4955C23.3066 16.9833 23.5996 16.4609 23.834 15.9286H20.5527ZM23.834 8.21429C23.3359 7.07924 22.6621 6.07478 21.8125 5.20089C20.9629 4.32701 19.9717 3.649 18.8389 3.16685C19.2881 3.93025 19.6445 4.74386 19.9082 5.6077C20.1719 6.47154 20.3867 7.3404 20.5527 8.21429H23.834ZM15.25 2.42857C14.9375 2.42857 14.6445 2.53906 14.3711 2.76004C14.0977 2.98103 13.8389 3.2673 13.5947 3.61886C13.3506 3.97042 13.1357 4.36217 12.9502 4.79409C12.7646 5.226 12.5938 5.65792 12.4375 6.08984C12.2812 6.52176 12.1543 6.92355 12.0566 7.2952C11.959 7.66685 11.8906 7.97321 11.8516 8.21429H18.6484C18.5996 7.98326 18.5312 7.68192 18.4434 7.31027C18.3555 6.93862 18.2334 6.53181 18.0771 6.08984C17.9209 5.64788 17.75 5.21596 17.5645 4.79409C17.3789 4.37221 17.1641 3.98047 16.9199 3.61886C16.6758 3.25725 16.417 2.97098 16.1436 2.76004C15.8701 2.54911 15.5723 2.43862 15.25 2.42857ZM11.6611 3.16685C10.5381 3.649 9.55176 4.32701 8.70215 5.20089C7.85254 6.07478 7.17383 7.07924 6.66602 8.21429H9.94727C10.1035 7.3404 10.3135 6.47154 10.5771 5.6077C10.8408 4.74386 11.2021 3.93025 11.6611 3.16685ZM6.06543 10.1429C6.00684 10.4643 5.96289 10.7857 5.93359 11.1071C5.9043 11.4286 5.88477 11.75 5.875 12.0714C5.875 12.3929 5.88965 12.7143 5.91895 13.0357C5.94824 13.3571 5.99707 13.6786 6.06543 14H9.71289C9.6543 13.3571 9.625 12.7143 9.625 12.0714C9.625 11.4386 9.6543 10.7958 9.71289 10.1429H6.06543ZM2.53516 25.5714H27.9648L26.8369 19.7857H23.6143C23.0869 20.3984 22.5059 20.9408 21.8711 21.4129C21.2363 21.885 20.5576 22.2919 19.835 22.6334C19.1123 22.9749 18.3701 23.226 17.6084 23.3867C16.8467 23.5474 16.0605 23.6328 15.25 23.6429C14.4492 23.6429 13.6631 23.5575 12.8916 23.3867C12.1201 23.216 11.3779 22.9648 10.665 22.6334C9.95215 22.3019 9.27832 21.9001 8.64355 21.428C8.00879 20.9559 7.42285 20.4085 6.88574 19.7857H3.66309L2.53516 25.5714Z" fill="#320029"/>
</svg>
