<svg width="90" height="91" viewBox="0 0 90 91" fill="none" xmlns="http://www.w3.org/2000/svg">
<rect x="0.0935059" y="0.634277" width="89.7194" height="89.7205" rx="44.8597" fill="white"/>
<path d="M81.4208 27.1435C80.9831 25.5261 80.1294 24.0516 78.9446 22.8667C77.7598 21.6818 76.2853 20.828 74.6679 20.3903C68.7465 18.7754 44.9151 18.7754 44.9151 18.7754C44.9151 18.7754 21.0824 18.8243 15.1611 20.4392C13.5436 20.8769 12.0691 21.7308 10.8843 22.9157C9.69949 24.1006 8.84576 25.5752 8.40814 27.1927C6.61707 37.7138 5.92228 53.7454 8.45732 63.8456C8.89499 65.4631 9.74873 66.9376 10.9335 68.1225C12.1183 69.3073 13.5929 70.1611 15.2103 70.5989C21.1316 72.2138 44.9637 72.2138 44.9637 72.2138C44.9637 72.2138 68.7954 72.2138 74.7164 70.5989C76.3339 70.1612 77.8085 69.3074 78.9934 68.1225C80.1782 66.9377 81.032 65.4631 81.4697 63.8456C83.3588 53.3097 83.9409 37.2878 81.4208 27.1435Z" fill="#FF0000"/>
<path d="M37.9751 60.447L55.919 45.4937L37.9751 30.5405V60.447Z" fill="white"/>
</svg>
