<svg width="22" height="20" viewBox="0 0 22 20" fill="none" xmlns="http://www.w3.org/2000/svg">
<path id="Union" fill-rule="evenodd" clip-rule="evenodd" d="M10.2777 17.5631L2.70555 9.9927L10.2777 2.42233C10.4492 2.2509 10.5455 2.01838 10.5455 1.77594C10.5455 1.5335 10.4492 1.30099 10.2777 1.12956C10.1063 0.958126 9.8738 0.861816 9.63136 0.861816C9.38892 0.861816 9.15641 0.958126 8.98498 1.12956L0.76822 9.34631C0.683198 9.43112 0.615743 9.53187 0.569717 9.64279C0.523691 9.75371 0.5 9.87261 0.5 9.9927C0.5 10.1128 0.523691 10.2317 0.569717 10.3426C0.615743 10.4535 0.683198 10.5543 0.76822 10.6391L8.98498 18.8558C9.15641 19.0273 9.38892 19.1236 9.63136 19.1236C9.8738 19.1236 10.1063 19.0273 10.2777 18.8558C10.4492 18.6844 10.5455 18.4519 10.5455 18.2095C10.5455 17.967 10.4492 17.7345 10.2777 17.5631ZM20.7635 9.07922H6.03141C5.83605 9.07922 5.64869 9.1754 5.51055 9.34662C5.37241 9.51783 5.2948 9.75005 5.2948 9.99219C5.2948 10.2343 5.37241 10.4665 5.51055 10.6378C5.64869 10.809 5.83605 10.9052 6.03141 10.9052H20.7635C20.9588 10.9052 21.1462 10.809 21.2843 10.6378C21.4225 10.4665 21.5001 10.2343 21.5001 9.99219C21.5001 9.75005 21.4225 9.51783 21.2843 9.34662C21.1462 9.1754 20.9588 9.07922 20.7635 9.07922Z" fill="#320029"/>
</svg>
