<svg width="24" height="25" viewBox="0 0 24 25" fill="none" xmlns="http://www.w3.org/2000/svg">
<path id="Vector" d="M10.2115 22.8952C10.8985 23.0146 11.616 22.8856 12.2318 22.5302L10.2115 22.8952ZM10.2115 22.8952C9.62398 22.7931 9.09285 22.5154 8.68695 22.1047M10.2115 22.8952L8.68695 22.1047M8.68695 22.1047L13.6358 19.2475C13.7885 19.8044 13.7635 20.4032 13.5581 20.9631C13.318 21.6177 12.8475 22.1746 12.2318 22.5301L8.68695 22.1047ZM21.6949 12.7621L21.6949 12.7649C21.6948 12.7969 21.6859 12.8301 21.6679 12.8604C21.6498 12.8908 21.6235 12.9168 21.5913 12.9351L21.5898 12.9359L5.77055 22.0692L5.76905 22.0701C5.7372 22.0888 5.70151 22.0986 5.66613 22.099C5.63082 22.0995 5.5977 22.0906 5.56987 22.0747L5.56988 22.0746L5.56693 22.073C5.53791 22.0569 5.5147 22.0338 5.49892 22.0065C5.48314 21.9791 5.47479 21.9475 5.47533 21.9143L5.22536 21.9103L5.47532 21.9148C5.50609 20.2067 4.63367 16.8603 2.67698 13.4712C1.71943 11.8126 1.48359 9.82574 2.02437 7.94648C2.56527 6.0668 3.83898 4.44908 5.56707 3.45137C7.29516 2.45366 9.333 2.15945 11.2313 2.63085C13.1292 3.10215 14.732 4.29984 15.6895 5.95837C17.6457 9.3465 20.1081 11.7762 21.6028 12.6036L21.6029 12.6037C21.632 12.6198 21.6552 12.6428 21.6711 12.6701C21.6869 12.6973 21.6954 12.7289 21.6949 12.7621ZM22.3084 11.3908C21.2386 10.7955 18.886 8.66838 16.9134 5.25174C15.7698 3.27093 13.8576 1.84431 11.5998 1.28364C9.34254 0.723087 6.92459 1.0738 4.87693 2.25601C2.82927 3.43823 1.31658 5.35688 0.673381 7.59204C0.0300631 9.82762 0.309431 12.197 1.45305 14.1778C3.42559 17.5943 4.0903 20.6954 4.06844 21.9146C4.06266 22.1938 4.13198 22.468 4.27003 22.7093C4.40816 22.9506 4.60964 23.1494 4.85345 23.2858C5.09719 23.4222 5.37415 23.4912 5.65607 23.4871C5.93428 23.4831 6.20815 23.4081 6.45112 23.27L7.42636 22.8121C8.04168 23.5559 8.90538 24.0625 9.87339 24.2456C10.9095 24.4417 11.9932 24.2537 12.9185 23.7195C13.8438 23.1853 14.5484 22.3408 14.8967 21.3455C15.2203 20.4204 15.2152 19.4248 14.884 18.5238L22.2797 14.1314C22.2801 14.1312 22.2804 14.131 22.2808 14.1308C22.5242 13.989 22.7278 13.7878 22.8712 13.5469C23.0148 13.3055 23.0932 13.0322 23.0971 12.7541C23.1011 12.4758 23.0305 12.2029 22.8918 11.9631C22.7531 11.7233 22.5516 11.5261 22.3084 11.3908Z" fill="#E0C2DB" stroke="#E0C2DB" stroke-width="0.5"/>
</svg>
