<svg width="23" height="24" viewBox="0 0 23 24" fill="none" xmlns="http://www.w3.org/2000/svg">
<path id="Vector" d="M9.57008 21.1753C10.1053 21.6222 10.7912 21.8692 11.5022 21.8693L9.57008 21.1753ZM9.57008 21.1753C9.1123 20.7932 8.79117 20.2871 8.64501 19.7285M9.57008 21.1753L8.64501 19.7285M8.64501 19.7285H14.3594C14.2133 20.2871 13.8922 20.7932 13.4344 21.1753C12.8991 21.6222 12.2133 21.8692 11.5022 21.8693L8.64501 19.7285ZM2.36946 19.7285H2.36953H7.20264C7.36677 20.6733 7.85993 21.5371 8.60204 22.1758C9.40134 22.8637 10.4338 23.2427 11.5022 23.2427C12.5707 23.2427 13.6031 22.8637 14.4024 22.1758C15.1445 21.5371 15.6377 20.6733 15.8018 19.7285L20.6349 19.7285L20.6358 19.7285C20.9179 19.7275 21.1953 19.6552 21.4403 19.518C21.6854 19.3808 21.8898 19.1833 22.0324 18.9444C22.1749 18.7054 22.2503 18.4337 22.25 18.1567C22.2497 17.8797 22.1739 17.6082 22.0309 17.3694C21.4021 16.3189 20.4283 13.3005 20.4283 9.35531C20.4283 7.06806 19.4855 4.87645 17.8106 3.26204C16.136 1.64792 13.8667 0.742676 11.5022 0.742676C9.13779 0.742676 6.86844 1.64792 5.19383 3.26204C3.51891 4.87645 2.57616 7.06806 2.57616 9.35531C2.57616 13.3004 1.60129 16.3183 0.972781 17.3632C0.828177 17.6021 0.751073 17.8743 0.750011 18.1523C0.748949 18.4303 0.824052 18.7032 0.966992 18.9433C1.10989 19.1832 1.31524 19.3815 1.56141 19.5189C1.80753 19.6564 2.08623 19.7284 2.36946 19.7285ZM20.814 18.2502L20.8126 18.2526C20.7965 18.2803 20.7722 18.3046 20.7414 18.3218C20.7105 18.3391 20.6747 18.3485 20.6378 18.3482H20.6361L2.36953 18.3482L2.36779 18.3482C2.33086 18.3485 2.29505 18.3391 2.26418 18.3218C2.23337 18.3046 2.20912 18.2803 2.19301 18.2526L2.19303 18.2526L2.19129 18.2497C2.17423 18.2212 2.16565 18.1896 2.16565 18.1581C2.16565 18.1265 2.17423 18.095 2.19129 18.0665L1.97682 17.938L2.19104 18.0669C3.07176 16.603 3.98943 13.2687 3.98943 9.35531C3.98943 7.4402 4.77864 5.60158 6.1866 4.24448C7.59487 2.88708 9.5068 2.12295 11.5022 2.12295C13.4976 2.12295 15.4096 2.88708 16.8179 4.24448C18.2258 5.60158 19.015 7.4402 19.015 9.35531C19.015 13.2676 19.9327 16.603 20.8134 18.0669L20.8135 18.067C20.8306 18.0955 20.8393 18.127 20.8394 18.1586C20.8395 18.1901 20.8309 18.2217 20.814 18.2502Z" fill="#320029" stroke="#320029" stroke-width="0.5"/>
</svg>
