<svg width="40" height="40" viewBox="0 0 40 40" fill="none" xmlns="http://www.w3.org/2000/svg">
<path id="+" d="M17.303 0.733302C17.303 0.401931 17.5716 0.133301 17.903 0.133301H21.3768C21.7082 0.133301 21.9768 0.40193 21.9768 0.733301V16.6964C21.9768 17.0278 22.2454 17.2964 22.5768 17.2964H38.5399C38.8713 17.2964 39.1399 17.565 39.1399 17.8964V21.3702C39.1399 21.7016 38.8713 21.9702 38.5399 21.9702H22.5768C22.2454 21.9702 21.9768 22.2388 21.9768 22.5702V38.5333C21.9768 38.8647 21.7082 39.1333 21.3768 39.1333H17.903C17.5716 39.1333 17.303 38.8647 17.303 38.5333V22.5702C17.303 22.2388 17.0344 21.9702 16.703 21.9702H0.739894C0.408523 21.9702 0.139893 21.7016 0.139893 21.3702V17.8964C0.139893 17.565 0.408522 17.2964 0.739893 17.2964H16.703C17.0344 17.2964 17.303 17.0278 17.303 16.6964V0.733302Z" fill="#320029"/>
</svg>
