<svg width="24" height="25" viewBox="0 0 24 25" fill="none" xmlns="http://www.w3.org/2000/svg">
<g id="Vector">
<path fill-rule="evenodd" clip-rule="evenodd" d="M11.9999 1.42676C12.5515 1.42676 13.0952 1.46761 13.6248 1.54618L14.423 3.96458C15.1223 4.16414 15.787 4.44857 16.403 4.80685L18.6972 3.70058C19.5096 4.32443 20.2324 5.05984 20.8421 5.88326L19.695 8.15708C20.0423 8.77936 20.3157 9.44877 20.5027 10.1528L22.9069 10.9903C23.0394 12.007 23.0304 13.0372 22.8802 14.0514L20.4619 14.8497C20.2637 15.5418 19.9808 16.2068 19.6196 16.8297L20.7259 19.1239C20.1012 19.9365 19.3666 20.6584 18.5432 21.2689L16.2694 20.1217C15.6404 20.473 14.97 20.7443 14.2737 20.9294L13.4362 23.3337C12.4195 23.4662 11.3894 23.4572 10.3751 23.307L9.57687 20.8886C8.88474 20.6904 8.21973 20.4075 7.59692 20.0463L5.3027 21.1526C4.49007 20.5279 3.76818 19.7933 3.15776 18.9699L4.30487 16.6961C3.95446 16.0667 3.68318 15.3964 3.49717 14.7004L1.09295 13.8613C0.960633 12.8451 0.969622 11.8155 1.11967 10.8018L3.53803 10.0035C3.7376 9.3042 4.02202 8.6395 4.38029 8.02351L3.27404 5.72926C3.89872 4.91662 4.6333 4.19473 5.45669 3.5843L7.73049 4.73142C8.3595 4.38016 9.0299 4.10883 9.72615 3.92372L10.5653 1.51947C11.041 1.45758 11.5202 1.42661 11.9999 1.42676Z" stroke="#320029" stroke-width="1.5" stroke-linecap="round" stroke-linejoin="round"/>
<path d="M12 17.1408C14.6035 17.1408 16.7141 15.0302 16.7141 12.4266C16.7141 9.823 14.6035 7.71237 12 7.71237C9.39643 7.71237 7.28583 9.823 7.28583 12.4266C7.28583 15.0302 9.39643 17.1408 12 17.1408Z" stroke="#320029" stroke-width="1.5" stroke-linecap="round" stroke-linejoin="round"/>
</g>
</svg>
