<svg width="16" height="16" viewBox="0 0 16 16" fill="none" xmlns="http://www.w3.org/2000/svg">
<g id="teenyicons:search-outline" clip-path="url(#clip0_644_2603)">
<path id="Vector" d="M15 15L11 11M7 13C6.21207 13 5.43185 12.8448 4.7039 12.5433C3.97595 12.2417 3.31451 11.7998 2.75736 11.2426C2.20021 10.6855 1.75825 10.0241 1.45672 9.2961C1.15519 8.56815 1 7.78793 1 7C1 6.21207 1.15519 5.43185 1.45672 4.7039C1.75825 3.97595 2.20021 3.31451 2.75736 2.75736C3.31451 2.20021 3.97595 1.75825 4.7039 1.45672C5.43185 1.15519 6.21207 1 7 1C8.5913 1 10.1174 1.63214 11.2426 2.75736C12.3679 3.88258 13 5.4087 13 7C13 8.5913 12.3679 10.1174 11.2426 11.2426C10.1174 12.3679 8.5913 13 7 13Z" stroke="#320029"/>
</g>
<defs>
<clipPath id="clip0_644_2603">
<rect width="15" height="15" fill="white" transform="translate(0.5 0.5)"/>
</clipPath>
</defs>
</svg>
